<svg width="28" height="28" viewBox="0 0 28 28" fill="none" xmlns="http://www.w3.org/2000/svg">
<path d="M17.1748 2.05371L5.42856 16.5714H12.2857L10.5977 25.8514C10.5943 25.8697 10.595 25.8886 10.5998 25.9066C10.6046 25.9246 10.6133 25.9413 10.6253 25.9555C10.6374 25.9697 10.6524 25.9811 10.6694 25.9888C10.6863 25.9965 10.7048 26.0003 10.7234 26C10.7429 26 10.7622 25.9955 10.7796 25.9867C10.7971 25.978 10.8123 25.9653 10.824 25.9497L22.5714 11.4286H15.7143L17.4103 2.14743C17.4126 2.12899 17.4109 2.11028 17.4054 2.09254C17.3999 2.0748 17.3906 2.05844 17.3783 2.04457C17.366 2.03061 17.3509 2.01942 17.3339 2.01173C17.317 2.00405 17.2986 2.00005 17.28 2C17.2595 1.99995 17.2392 2.0048 17.2209 2.01414C17.2026 2.02348 17.1868 2.03705 17.1748 2.05371Z" stroke="#4D4D4D" stroke-width="2" stroke-linecap="round" stroke-linejoin="round"/>
</svg>
