<svg width="28" height="28" viewBox="0 0 28 28" fill="none" xmlns="http://www.w3.org/2000/svg">
<path d="M10.7223 26.8594C10.5786 26.8596 10.4366 26.8283 10.3063 26.7677C10.176 26.7071 10.0606 26.6186 9.96821 26.5086C9.87581 26.3985 9.80866 26.2695 9.77151 26.1307C9.73435 25.9919 9.72808 25.8466 9.75314 25.7051V25.6994L11.2571 17.4309H5.42857C5.26667 17.4309 5.10806 17.3851 4.97112 17.2987C4.83418 17.2123 4.72451 17.0889 4.65479 16.9428C4.58508 16.7967 4.55817 16.6338 4.5772 16.473C4.59622 16.3122 4.66039 16.1601 4.76229 16.0343L16.5029 1.52C16.6365 1.35031 16.822 1.22904 17.031 1.17473C17.24 1.12042 17.4611 1.13605 17.6604 1.21925C17.8597 1.30244 18.0263 1.44862 18.1347 1.63543C18.243 1.82223 18.2873 2.03939 18.2606 2.25371C18.2606 2.26971 18.256 2.28571 18.2537 2.30171L16.7429 10.5737H22.5714C22.7331 10.5739 22.8915 10.6197 23.0282 10.706C23.165 10.7924 23.2745 10.9156 23.3442 11.0615C23.4138 11.2074 23.4408 11.3701 23.422 11.5307C23.4031 11.6913 23.3393 11.8433 23.2377 11.9691L11.4949 26.4834C11.4027 26.6002 11.2853 26.6946 11.1516 26.7597C11.0178 26.8248 10.8711 26.8589 10.7223 26.8594Z" fill="#4D4D4D"/>
</svg>
