<svg width="20" height="20" viewBox="0 0 20 20" fill="none" xmlns="http://www.w3.org/2000/svg">
<path d="M19.7874 10.2249C19.7874 9.56659 19.7291 8.94159 19.6291 8.33325H10.2124V12.0916H15.6041C15.3624 13.3249 14.6541 14.3666 13.6041 15.0749V17.5749H16.8207C18.7041 15.8333 19.7874 13.2666 19.7874 10.2249Z" fill="#4285F4"/>
<path d="M10.2124 20.0001C12.9124 20.0001 15.1707 19.1001 16.8207 17.5751L13.604 15.0751C12.704 15.6751 11.5624 16.0418 10.2124 16.0418C7.60402 16.0418 5.39569 14.2834 4.60402 11.9084H1.28735V14.4834C2.92902 17.7501 6.30402 20.0001 10.2124 20.0001Z" fill="#34A853"/>
<path d="M4.60407 11.9083C4.39574 11.3083 4.2874 10.6666 4.2874 9.99993C4.2874 9.33327 4.40407 8.6916 4.60407 8.0916V5.5166H1.2874C0.604068 6.8666 0.212402 8.38327 0.212402 9.99993C0.212402 11.6166 0.604068 13.1333 1.2874 14.4833L4.60407 11.9083Z" fill="#FBBC05"/>
<path d="M10.2124 3.95833C11.6874 3.95833 13.004 4.46667 14.0457 5.45834L16.8957 2.60833C15.1707 0.991668 12.9124 0 10.2124 0C6.30402 0 2.92902 2.25 1.28735 5.51667L4.60402 8.09167C5.39569 5.71667 7.60402 3.95833 10.2124 3.95833Z" fill="#EA4335"/>
</svg>
