<svg width="24" height="24" viewBox="0 0 24 24" fill="none" xmlns="http://www.w3.org/2000/svg">
<path d="M2.25 1.5C2.05109 1.5 1.86032 1.57902 1.71967 1.71967C1.57902 1.86032 1.5 2.05109 1.5 2.25V6.75C1.5 6.94891 1.42098 7.13968 1.28033 7.28033C1.13968 7.42098 0.948912 7.5 0.75 7.5C0.551088 7.5 0.360322 7.42098 0.21967 7.28033C0.0790176 7.13968 0 6.94891 0 6.75V2.25C0 1.65326 0.237053 1.08097 0.65901 0.65901C1.08097 0.237053 1.65326 0 2.25 0H6.75C6.94891 0 7.13968 0.0790176 7.28033 0.21967C7.42098 0.360322 7.5 0.551088 7.5 0.75C7.5 0.948912 7.42098 1.13968 7.28033 1.28033C7.13968 1.42098 6.94891 1.5 6.75 1.5H2.25ZM16.5 0.75C16.5 0.551088 16.579 0.360322 16.7197 0.21967C16.8603 0.0790176 17.0511 0 17.25 0H21.75C22.3467 0 22.919 0.237053 23.341 0.65901C23.7629 1.08097 24 1.65326 24 2.25V6.75C24 6.94891 23.921 7.13968 23.7803 7.28033C23.6397 7.42098 23.4489 7.5 23.25 7.5C23.0511 7.5 22.8603 7.42098 22.7197 7.28033C22.579 7.13968 22.5 6.94891 22.5 6.75V2.25C22.5 2.05109 22.421 1.86032 22.2803 1.71967C22.1397 1.57902 21.9489 1.5 21.75 1.5H17.25C17.0511 1.5 16.8603 1.42098 16.7197 1.28033C16.579 1.13968 16.5 0.948912 16.5 0.75ZM0.75 16.5C0.948912 16.5 1.13968 16.579 1.28033 16.7197C1.42098 16.8603 1.5 17.0511 1.5 17.25V21.75C1.5 21.9489 1.57902 22.1397 1.71967 22.2803C1.86032 22.421 2.05109 22.5 2.25 22.5H6.75C6.94891 22.5 7.13968 22.579 7.28033 22.7197C7.42098 22.8603 7.5 23.0511 7.5 23.25C7.5 23.4489 7.42098 23.6397 7.28033 23.7803C7.13968 23.921 6.94891 24 6.75 24H2.25C1.65326 24 1.08097 23.7629 0.65901 23.341C0.237053 22.919 0 22.3467 0 21.75V17.25C0 17.0511 0.0790176 16.8603 0.21967 16.7197C0.360322 16.579 0.551088 16.5 0.75 16.5ZM23.25 16.5C23.3485 16.4998 23.4461 16.5191 23.5372 16.5568C23.6283 16.5944 23.711 16.6496 23.7807 16.7193C23.8504 16.789 23.9056 16.8717 23.9432 16.9628C23.9809 17.0539 24.0002 17.1515 24 17.25V21.75C24 22.3467 23.7629 22.919 23.341 23.341C22.919 23.7629 22.3467 24 21.75 24H17.25C17.0511 24 16.8603 23.921 16.7197 23.7803C16.579 23.6397 16.5 23.4489 16.5 23.25C16.5 23.0511 16.579 22.8603 16.7197 22.7197C16.8603 22.579 17.0511 22.5 17.25 22.5H21.75C21.8485 22.5002 21.9461 22.4809 22.0372 22.4432C22.1283 22.4056 22.211 22.3504 22.2807 22.2807C22.3504 22.211 22.4056 22.1283 22.4432 22.0372C22.4809 21.9461 22.5002 21.8485 22.5 21.75V17.25C22.4998 17.1515 22.5191 17.0539 22.5568 16.9628C22.5944 16.8717 22.6496 16.789 22.7193 16.7193C22.789 16.6496 22.8717 16.5944 22.9628 16.5568C23.0539 16.5191 23.1515 16.4998 23.25 16.5Z" fill="white"/>
<rect x="4" y="7" width="16" height="2" rx="1" fill="white"/>
<rect x="4" y="10" width="16" height="4" rx="1" fill="white"/>
<rect x="4" y="16" width="16" height="2" rx="1" fill="white"/>
</svg>
