<svg width="24" height="24" viewBox="0 0 24 24" fill="none" xmlns="http://www.w3.org/2000/svg">
<path d="M13.716 19.115L8.09101 4.115C8.01737 3.91839 7.88547 3.74895 7.71293 3.62933C7.5404 3.50971 7.33546 3.44562 7.12551 3.44562C6.91557 3.44562 6.71062 3.50971 6.53809 3.62933C6.36555 3.74895 6.23365 3.91839 6.16001 4.115L0.53501 19.115C0.442029 19.3704 0.453669 19.6522 0.567398 19.8991C0.681127 20.1459 0.887743 20.3379 1.14229 20.4332C1.39685 20.5285 1.67873 20.5195 1.92663 20.408C2.17453 20.2965 2.36838 20.0917 2.46601 19.838L4.16101 15.318C4.16789 15.3003 4.17998 15.285 4.19569 15.2743C4.2114 15.2636 4.23 15.2579 4.24901 15.258H10.002C10.0211 15.2578 10.0397 15.2634 10.0555 15.2741C10.0712 15.2849 10.0833 15.3002 10.09 15.318L11.785 19.838C11.8826 20.0917 12.0765 20.2965 12.3244 20.408C12.5723 20.5195 12.8542 20.5285 13.1087 20.4332C13.3633 20.3379 13.5699 20.1459 13.6836 19.8991C13.7974 19.6522 13.809 19.3704 13.716 19.115ZM5.00501 13.068L7.03801 7.647C7.04491 7.62941 7.05695 7.61432 7.07256 7.60367C7.08817 7.59303 7.10662 7.58734 7.12551 7.58734C7.1444 7.58734 7.16285 7.59303 7.17846 7.60367C7.19407 7.61432 7.20611 7.62941 7.21301 7.647L9.24601 13.069C9.25111 13.0831 9.25277 13.0982 9.25085 13.113C9.24894 13.1279 9.24349 13.1421 9.23498 13.1544C9.22647 13.1667 9.21513 13.1769 9.20192 13.1839C9.1887 13.191 9.17399 13.1948 9.15901 13.195H5.09301C5.07789 13.1951 5.06298 13.1915 5.04956 13.1845C5.03614 13.1776 5.02463 13.1674 5.01601 13.155C5.00733 13.1426 5.00179 13.1283 4.99988 13.1134C4.99796 13.0984 4.99972 13.0831 5.00501 13.069V13.068Z" fill="white"/>
<path d="M18.786 7.94501C16.83 7.93101 15.079 9.06501 14.333 10.824C14.2261 11.0757 14.2236 11.3595 14.326 11.6131C14.4284 11.8666 14.6273 12.0691 14.879 12.176C15.1307 12.2829 15.4145 12.2854 15.6681 12.183C15.9216 12.0806 16.1241 11.8817 16.231 11.63C16.648 10.65 17.627 10.015 18.731 10.008C20.246 9.99801 21.469 11.25 21.469 12.767C21.469 12.7852 21.4619 12.8027 21.4492 12.8158C21.4365 12.8289 21.4192 12.8365 21.401 12.837C20.287 12.8646 19.1746 12.9396 18.067 13.062C15.501 13.364 13.969 14.762 13.969 16.805C13.969 17.892 14.379 18.867 15.125 19.555C15.825 20.2 16.781 20.555 17.813 20.555C19.266 20.555 20.517 20.18 21.466 19.466H21.469C21.4622 19.6052 21.4837 19.7443 21.5321 19.8749C21.5806 20.0055 21.6549 20.125 21.7508 20.2261C21.8466 20.3272 21.962 20.4079 22.0898 20.4632C22.2177 20.5186 22.3554 20.5475 22.4948 20.5481C22.6341 20.5488 22.7721 20.5213 22.9005 20.4672C23.0289 20.4131 23.145 20.3335 23.2418 20.2334C23.3387 20.1332 23.4142 20.0144 23.4639 19.8843C23.5136 19.7541 23.5364 19.6152 23.531 19.476V12.772C23.531 10.139 21.421 7.96501 18.786 7.94501ZM17.812 18.492C16.991 18.492 16.032 18.05 16.032 16.805C16.032 16.305 16.211 15.955 16.614 15.669C17.006 15.391 17.608 15.193 18.308 15.11C19.298 14.994 20.408 14.93 21.361 14.9C21.3739 14.9 21.3866 14.9026 21.3984 14.9077C21.4102 14.9128 21.4209 14.9203 21.4297 14.9296C21.4385 14.939 21.4453 14.9501 21.4496 14.9622C21.454 14.9743 21.4558 14.9872 21.455 15C21.328 17.349 20.13 18.492 17.812 18.492Z" fill="white"/>
</svg>
